<svg xmlns="http://www.w3.org/2000/svg" xmlns:xlink="http://www.w3.org/1999/xlink" viewBox="0,0,256,256" width="60px" height="60px" fill-rule="nonzero"><g fill="#596bfa" fill-rule="nonzero" stroke="none" stroke-width="1" stroke-linecap="butt" stroke-linejoin="miter" stroke-miterlimit="10" stroke-dasharray="" stroke-dashoffset="0" font-family="none" font-weight="none" font-size="none" text-anchor="none" style="mix-blend-mode: normal"><path d="M70.3616,229.12c-24.01422,0 -43.4816,-19.46738 -43.4816,-43.4816v-115.2768c0,-24.01422 19.46738,-43.4816 43.4816,-43.4816h115.2768c24.01422,0 43.4816,19.46738 43.4816,43.4816v115.2768c0,24.01422 -19.46738,43.4816 -43.4816,43.4816z" id="shape"></path></g><g fill="#000000" fill-rule="nonzero" stroke="none" stroke-width="1" stroke-linecap="butt" stroke-linejoin="miter" stroke-miterlimit="10" stroke-dasharray="" stroke-dashoffset="0" font-family="none" font-weight="none" font-size="none" text-anchor="none" style="mix-blend-mode: normal"><g transform="scale(5.12,5.12)"><path d="M14,4c-5.51133,0 -10,4.48867 -10,10v22c0,5.51133 4.48867,10 10,10h22c5.51133,0 10,-4.48867 10,-10v-22c0,-5.51133 -4.48867,-10 -10,-10zM14,6h22c4.43067,0 8,3.56933 8,8v22c0,4.43067 -3.56933,8 -8,8h-22c-4.43067,0 -8,-3.56933 -8,-8v-22c0,-4.43067 3.56933,-8 8,-8zM25,10c-1.32,0 -2.60008,0.17 -3.83008,0.5c0.78,0.37 1.43969,0.94063 1.92969,1.64063h0.00977c0.29447,-0.04275 0.59164,-0.07403 0.89063,-0.09766v11.95703h-6l-2.66992,2h1.69922c0.06462,1.9774 0.33767,3.82627 0.75977,5.50586c-1.04678,0.44993 -2.0198,0.99512 -2.89844,1.63281c-1.42683,-1.76999 -2.40151,-3.91869 -2.74023,-6.26953c-0.17,-0.04 -0.33024,-0.10945 -0.49024,-0.18945c-0.94,-0.46 -1.55062,-1.38016 -1.64062,-2.41016c-0.01,0.24 -0.01953,0.48047 -0.01953,0.73047c0,8.27 6.73,15 15,15c1.32,0 2.60008,-0.17 3.83008,-0.5c-0.78,-0.37 -1.43969,-0.94062 -1.92969,-1.64062c-0.29591,0.04295 -0.59755,0.07596 -0.90039,0.09961v-11.95898h12c0.68,0 1.32969,0.14086 1.92969,0.38086c0.05,-0.45 0.07031,-0.91086 0.07031,-1.38086c0,-8.27 -6.73,-15 -15,-15zM12,12c-1.64497,0 -3,1.35503 -3,3v4c0,1.64497 1.35503,3 3,3v2c-0.00011,0.37874 0.21373,0.72504 0.5524,0.89459c0.33867,0.16954 0.74406,0.13323 1.0472,-0.09381l3.73438,-2.80078h1.66602c1.64497,0 3,-1.35503 3,-3v-4c0,-1.64497 -1.35503,-3 -3,-3zM26,12.42383c1.07916,0.43098 2.15769,1.32906 3.05469,3.12305c0.23486,0.46972 0.36495,1.1359 0.56445,1.68164c-1.13426,0.33799 -2.35325,0.52611 -3.61914,0.60547zM29.80078,12.92188c1.44581,0.57745 2.76011,1.41143 3.89648,2.43945c-0.69223,0.42046 -1.46174,0.77659 -2.23242,1.12695c-0.22102,-0.59727 -0.35544,-1.30463 -0.62109,-1.83594c-0.31233,-0.62466 -0.66369,-1.20231 -1.04297,-1.73047zM12,14h7c0.56503,0 1,0.43497 1,1v4c0,0.56503 -0.43497,1 -1,1h-2c-0.21615,-0.00013 -0.42652,0.06976 -0.59961,0.19922l-2.40039,1.80078v-1c-0.00006,-0.55226 -0.44774,-0.99994 -1,-1h-1c-0.56503,0 -1,-0.43497 -1,-1v-4c0,-0.56503 0.43497,-1 1,-1zM35.10742,16.86133c1.60024,1.98714 2.63686,4.44633 2.8418,7.13867h-4.98437c-0.08257,-1.97047 -0.38602,-3.80124 -0.82031,-5.50586c1.05958,-0.46213 2.06335,-0.99702 2.96289,-1.63281zM30.2793,19.18945c0.35972,1.48003 0.612,3.0848 0.6875,4.81055h-4.9668v-4.08203c1.49691,-0.07982 2.93095,-0.32226 4.2793,-0.72852zM19.01953,26h4.98047v4.08203c-1.51861,0.08098 -2.97652,0.33987 -4.3457,0.74609c-0.34403,-1.44083 -0.57111,-3.06043 -0.63477,-4.82812zM31,28c-1.64497,0 -3,1.35503 -3,3v4c0,1.64497 1.35503,3 3,3h1.66602l3.73438,2.80078c0.30315,0.22703 0.70853,0.26335 1.0472,0.09381c0.33867,-0.16954 0.55251,-0.51585 0.5524,-0.89459v-2c1.64497,0 3,-1.35503 3,-3v-4c0,-1.64497 -1.35503,-3 -3,-3zM31,30h7c0.56503,0 1,0.43497 1,1v4c0,0.56503 -0.43497,1 -1,1h-1c-0.55226,0.00006 -0.99994,0.44774 -1,1v1l-2.40039,-1.80078c-0.17309,-0.12946 -0.38346,-0.19935 -0.59961,-0.19922h-2c-0.56503,0 -1,-0.43497 -1,-1v-4c0,-0.56503 0.43497,-1 1,-1zM24,32.16602v5.62891c-1.42918,-0.57432 -2.81145,-2.34842 -3.75977,-4.99414c1.18228,-0.33582 2.44585,-0.55239 3.75977,-0.63477zM18.375,33.4668c0.50009,1.39131 1.11909,2.61678 1.83594,3.61328c-1.4601,-0.58542 -2.78682,-1.43285 -3.93164,-2.47461c0.63911,-0.43505 1.34386,-0.81342 2.0957,-1.13867z"></path></g></g></svg>