<svg xmlns="http://www.w3.org/2000/svg" xmlns:xlink="http://www.w3.org/1999/xlink" viewBox="0,0,256,256" width="50px" height="50px" fill-rule="nonzero"><g fill="#6757d8" fill-rule="nonzero" stroke="none" stroke-width="1" stroke-linecap="butt" stroke-linejoin="miter" stroke-miterlimit="10" stroke-dasharray="" stroke-dashoffset="0" font-family="none" font-weight="none" font-size="none" text-anchor="none" style="mix-blend-mode: normal"><g transform="scale(5.12,5.12)"><path d="M13,4c-4.958,0 -9,4.042 -9,9v24c0,4.958 4.042,9 9,9h24c4.958,0 9,-4.042 9,-9v-24c0,-4.958 -4.042,-9 -9,-9zM25,9c8.822,0 16,7.178 16,16c0,8.822 -7.178,16 -16,16c-8.822,0 -16,-7.178 -16,-16c0,-8.822 7.178,-16 16,-16zM24,11.23633c-1.365,0.618 -2.70525,2.4572 -3.65625,5.1582c1.066,0.302 2.29425,0.50913 3.65625,0.57813zM26,11.23633v5.73633c1.36,-0.07 2.5873,-0.27998 3.6543,-0.58398c-0.951,-2.699 -2.2903,-4.53634 -3.6543,-5.15234zM29.55664,11.77539c0.772,1.054 1.43756,2.3793 1.97656,3.9043c0.998,-0.488 1.731,-1.06616 2.125,-1.66016c-1.22,-0.964 -2.60256,-1.72614 -4.10156,-2.24414zM20.44336,11.77734c-1.499,0.518 -2.88156,1.27819 -4.10156,2.24219c0.393,0.6 1.12109,1.18092 2.12109,1.66992c0.54,-1.529 1.20647,-2.85711 1.98047,-3.91211zM14.86328,15.36914c-2.172,2.285 -3.5745,5.29686 -3.8125,8.63086h5.97266c0.069,-2.309 0.36737,-4.46953 0.85937,-6.39453c-1.306,-0.596 -2.34453,-1.35933 -3.01953,-2.23633zM35.14258,15.37891c-0.672,0.881 -1.71744,1.63742 -3.02344,2.23242c0.49,1.923 0.78747,4.08267 0.85547,6.38867h5.97461c-0.237,-3.33 -1.63964,-6.33709 -3.80664,-8.62109zM19.77539,18.29297c-0.416,1.683 -0.68595,3.60603 -0.75195,5.70703h4.97656v-5.02344c-1.518,-0.072 -2.94461,-0.31359 -4.22461,-0.68359zM30.22656,18.30273c-1.276,0.366 -2.70156,0.60283 -4.22656,0.67383v5.02344h4.97656c-0.066,-2.098 -0.335,-4.01627 -0.75,-5.69727zM11.05078,26c0.237,3.332 1.63959,6.341 3.80859,8.625c0.673,-0.888 1.70758,-1.65695 3.01758,-2.25195c-0.488,-1.919 -0.78452,-4.07205 -0.85352,-6.37305zM19.02344,26c0.066,2.095 0.33305,4.01141 0.74805,5.69141c1.276,-0.364 2.70252,-0.59797 4.22852,-0.66797v-5.02344zM26,26v5.02344c1.53,0.07 2.95452,0.30206 4.22852,0.66406c0.414,-1.679 0.68205,-3.5945 0.74805,-5.6875zM32.97461,26c-0.068,2.299 -0.36356,4.45014 -0.85156,6.36914c1.311,0.595 2.34753,1.36291 3.01953,2.25391c2.168,-2.284 3.56964,-5.29205 3.80664,-8.62305zM24,33.02734c-1.358,0.07 -2.5863,0.27803 -3.6543,0.58203c0.951,2.7 2.2903,4.5373 3.6543,5.1543zM26,33.02734v5.73633c1.365,-0.617 2.70525,-2.45525 3.65625,-5.15625c-1.066,-0.302 -2.29425,-0.51108 -3.65625,-0.58008zM31.53711,34.3125c-0.54,1.529 -1.20747,2.85516 -1.98047,3.91016c1.498,-0.518 2.88156,-1.27819 4.10156,-2.24219c-0.394,-0.599 -1.12209,-1.17897 -2.12109,-1.66797zM18.46484,34.31641c-1.001,0.489 -1.72514,1.07002 -2.11914,1.66602c1.22,0.963 2.60066,1.72323 4.09766,2.24023c-0.773,-1.055 -1.43951,-2.38025 -1.97852,-3.90625z"></path></g></g></svg>